<svg width="47" height="55" viewBox="0 0 47 55" fill="none" xmlns="http://www.w3.org/2000/svg">
<g clip-path="url(#clip0_199_1996)">
<path d="M16.2477 24.9801H19.3597V35.0012H16.2477V24.9801ZM17.8043 20C18.7999 20 19.6062 20.8093 19.6062 21.8049C19.6062 22.8004 18.7999 23.6121 17.8043 23.6121C16.8087 23.6121 16 22.8016 16 21.8049C16 20.8081 16.8063 20 17.8043 20Z" fill="#CCAC71"/>
<path d="M21.3096 24.9802H24.2905V26.3506H24.331C24.7466 25.5616 25.7601 24.7319 27.2738 24.7319C30.4203 24.7319 31.0003 26.8054 31.0003 29.5043V35.0001H27.8955V30.1286C27.8955 28.966 27.8729 27.4715 26.2806 27.4715C24.6883 27.4715 24.4168 28.7368 24.4168 30.0439V35.0001H21.3108V24.9802H21.3096Z" fill="#CCAC71"/>
</g>
<rect x="1" y="1" width="45" height="53" rx="17.5" stroke="#CCAC71"/>
<defs>
<clipPath id="clip0_199_1996">
<rect width="15" height="15" fill="white" transform="translate(16 20)"/>
</clipPath>
</defs>
</svg>
