<svg width="47" height="56" viewBox="0 0 47 56" fill="none" xmlns="http://www.w3.org/2000/svg">
<g clip-path="url(#clip0_199_2000)">
<path d="M28.0001 22.8574C27.4499 22.8574 27.0039 23.2771 27.0039 23.795C27.0039 24.3128 27.4499 24.7335 28.0001 24.7335C28.5502 24.7335 28.9973 24.3138 28.9973 23.795C28.9973 23.2761 28.5513 22.8574 28.0001 22.8574Z" fill="#CCAC71"/>
<path d="M23.5699 24.0596C21.2617 24.0596 19.3833 25.8275 19.3833 27.9999C19.3833 30.1723 21.2617 31.9402 23.5699 31.9402C25.8781 31.9402 27.7565 30.1723 27.7565 27.9999C27.7565 25.8275 25.8781 24.0596 23.5699 24.0596ZM23.5699 30.5243C22.0913 30.5243 20.8877 29.3926 20.8877 27.9999C20.8877 26.6072 22.0913 25.4755 23.5699 25.4755C25.0485 25.4755 26.2521 26.6072 26.2521 27.9999C26.2521 29.3926 25.0496 30.5243 23.5699 30.5243Z" fill="#CCAC71"/>
<path d="M26.8936 36H20.1064C17.291 36 15 33.8437 15 31.1939V24.8061C15 22.1563 17.291 20 20.1064 20H26.8936C29.709 20 32 22.1563 32 24.8061V31.1939C32 33.8437 29.709 36 26.8936 36ZM20.1064 21.5049C18.1722 21.5049 16.599 22.9856 16.599 24.8061V31.1939C16.599 33.0144 18.1722 34.4951 20.1064 34.4951H26.8936C28.8278 34.4951 30.401 33.0144 30.401 31.1939V24.8061C30.401 22.9856 28.8278 21.5049 26.8936 21.5049H20.1064Z" fill="#CCAC71"/>
</g>
<rect x="1" y="1" width="45" height="54" rx="17.5" stroke="#CCAC71"/>
<defs>
<clipPath id="clip0_199_2000">
<rect width="17" height="16" fill="white" transform="translate(15 20)"/>
</clipPath>
</defs>
</svg>
