<svg width="47" height="55" viewBox="0 0 47 55" fill="none" xmlns="http://www.w3.org/2000/svg">
<path d="M30.9388 22.5587C30.4628 22.7851 29.9358 22.9236 29.422 23.0137C29.6657 22.9708 30.0245 22.5061 30.1682 22.3172C30.3874 22.0306 30.5688 21.7033 30.6718 21.3502C30.685 21.3223 30.6942 21.2879 30.6687 21.2675C30.6361 21.2536 30.6147 21.2611 30.5882 21.275C30.0143 21.5992 29.421 21.8331 28.789 21.9995C28.737 22.0134 28.6983 21.9995 28.6647 21.9651C28.6127 21.9029 28.5627 21.8439 28.5077 21.7956C28.2427 21.5573 27.9572 21.3716 27.6361 21.2332C27.2152 21.0529 26.7544 20.9756 26.3008 21.0067C25.8594 21.0368 25.4252 21.1677 25.0327 21.3834C24.6403 21.5992 24.2896 21.9007 24.0103 22.2624C23.7218 22.6381 23.5088 23.0813 23.3997 23.5503C23.2947 24.0033 23.3029 24.4519 23.3671 24.9102C23.3773 24.9864 23.3702 24.996 23.3049 24.9864C20.835 24.5989 18.7872 23.6684 17.1246 21.6743C17.0522 21.5874 17.0135 21.5874 16.9544 21.6807C16.2265 22.8291 16.5803 24.673 17.4885 25.5799C17.6098 25.7012 17.7342 25.8214 17.8687 25.9319C17.8198 25.9426 17.2153 25.874 16.6761 25.5799C16.6037 25.5316 16.568 25.5595 16.5609 25.6454C16.5538 25.7699 16.564 25.8836 16.5803 26.0178C16.7199 27.1812 17.4854 28.2577 18.5333 28.6773C18.6577 28.7321 18.7953 28.7814 18.9299 28.805C18.6913 28.8598 18.4447 28.8995 17.7597 28.8437C17.674 28.8265 17.6414 28.8716 17.674 28.9574C18.1888 30.4342 19.2999 30.8743 20.1317 31.1244C20.2428 31.1447 20.3549 31.1447 20.466 31.1726C20.4589 31.1834 20.4528 31.1834 20.4467 31.193C20.1704 31.6363 19.2143 31.9658 18.7688 32.13C17.9584 32.4284 17.0757 32.5625 16.2194 32.4734C16.0828 32.452 16.0533 32.4541 16.0166 32.4734C15.9788 32.4981 16.0115 32.5325 16.0553 32.57C16.2296 32.6913 16.406 32.7976 16.5864 32.9017C17.1307 33.2054 17.6975 33.4469 18.2907 33.6197C21.3529 34.5105 24.8023 33.8558 27.101 31.4506C28.9063 29.5617 29.5393 26.9569 29.5393 24.3489C29.5393 24.2469 29.6534 24.19 29.7217 24.1363C30.1917 23.765 30.5709 23.3196 30.9205 22.8237C30.999 22.7121 31 22.6134 31 22.5726V22.5587C31 22.5168 31 22.5297 30.9388 22.5587Z" fill="#CCAC71"/>
<rect x="1" y="1" width="45" height="53" rx="17.5" stroke="#CCAC71"/>
</svg>
