<svg width="34" height="31" viewBox="0 0 34 31" fill="none" xmlns="http://www.w3.org/2000/svg">
<path d="M33.9438 9.24389C33.4475 3.8871 29.5811 0.000641254 24.7423 0.000641254C21.5186 0.000641254 18.567 1.70181 16.9061 4.4283C15.2603 1.66654 12.4296 0 9.25759 0C4.41947 0 0.55238 3.88646 0.0567334 9.24325C0.0175002 9.47986 -0.143356 10.7251 0.345752 12.7559C1.05064 15.685 2.67882 18.3493 5.05309 20.4589L16.8983 31L28.9468 20.4596C31.3211 18.3493 32.9492 15.6856 33.6541 12.7559C34.1432 10.7258 33.9824 9.4805 33.9438 9.24389ZM32.381 12.4622C31.7376 15.1374 30.2461 17.5747 28.0719 19.506L16.9061 29.2751L5.93191 19.5086C3.75381 17.5734 2.26295 15.1367 1.61887 12.4616C1.15592 10.5398 1.3462 9.45421 1.34685 9.44716L1.35666 9.3824C1.78169 4.68927 5.10409 1.28245 9.25759 1.28245C12.3224 1.28245 15.0203 3.12917 16.3006 6.10125L16.9028 7.50104L17.5051 6.10125C18.7651 3.1747 21.6056 1.28309 24.743 1.28309C28.8958 1.28309 32.2188 4.68992 32.6524 9.44395C32.6537 9.45421 32.844 10.5404 32.381 12.4622Z" fill="#56463D"/>
</svg>
