<svg width="24" height="24" viewBox="0 0 24 24" fill="none" xmlns="http://www.w3.org/2000/svg">
<g clip-path="url(#clip0_199_1865)">
<path d="M12.0058 0.181641C7.07103 0.181641 5.6278 0.186732 5.34726 0.210004C4.33457 0.294186 3.7044 0.453641 3.01788 0.795459C2.4888 1.05819 2.07154 1.36273 1.65974 1.78964C0.909762 2.56819 0.45523 3.526 0.29069 4.66455C0.210692 5.21728 0.18742 5.33 0.182693 8.15328C0.180875 9.09437 0.182693 10.3329 0.182693 11.9942C0.182693 16.9251 0.188147 18.3669 0.211783 18.6469C0.293599 19.6324 0.448139 20.2524 0.775402 20.9306C1.40084 22.2287 2.59535 23.2033 4.00258 23.5669C4.48984 23.6924 5.028 23.7615 5.71889 23.7942C6.01161 23.8069 8.99515 23.816 11.9805 23.816C14.9659 23.816 17.9512 23.8124 18.2367 23.7978C19.0367 23.7602 19.5012 23.6978 20.0148 23.5651C21.4311 23.1996 22.6038 22.2396 23.242 20.9233C23.5629 20.2615 23.7256 19.6178 23.7992 18.6838C23.8153 18.4802 23.822 15.2335 23.822 11.9911C23.822 8.74819 23.8147 5.50746 23.7987 5.30382C23.7242 4.35473 23.5614 3.71655 23.2302 3.042C22.9584 2.48982 22.6566 2.07746 22.2184 1.65582C21.4364 0.908913 20.4801 0.454368 19.3405 0.290004C18.7883 0.210186 18.6783 0.18655 15.8529 0.181641H12.0058Z" fill="url(#paint0_radial_199_1865)"/>
<path d="M12.0058 0.181641C7.07103 0.181641 5.6278 0.186732 5.34726 0.210004C4.33457 0.294186 3.7044 0.453641 3.01788 0.795459C2.4888 1.05819 2.07154 1.36273 1.65974 1.78964C0.909762 2.56819 0.45523 3.526 0.29069 4.66455C0.210692 5.21728 0.18742 5.33 0.182693 8.15328C0.180875 9.09437 0.182693 10.3329 0.182693 11.9942C0.182693 16.9251 0.188147 18.3669 0.211783 18.6469C0.293599 19.6324 0.448139 20.2524 0.775402 20.9306C1.40084 22.2287 2.59535 23.2033 4.00258 23.5669C4.48984 23.6924 5.028 23.7615 5.71889 23.7942C6.01161 23.8069 8.99515 23.816 11.9805 23.816C14.9659 23.816 17.9512 23.8124 18.2367 23.7978C19.0367 23.7602 19.5012 23.6978 20.0148 23.5651C21.4311 23.1996 22.6038 22.2396 23.242 20.9233C23.5629 20.2615 23.7256 19.6178 23.7992 18.6838C23.8153 18.4802 23.822 15.2335 23.822 11.9911C23.822 8.74819 23.8147 5.50746 23.7987 5.30382C23.7242 4.35473 23.5614 3.71655 23.2302 3.042C22.9584 2.48982 22.6566 2.07746 22.2184 1.65582C21.4364 0.908913 20.4801 0.454368 19.3405 0.290004C18.7883 0.210186 18.6783 0.18655 15.8529 0.181641H12.0058Z" fill="url(#paint1_radial_199_1865)"/>
<path d="M12.0004 3.27295C9.63033 3.27295 9.33289 3.28331 8.402 3.32568C7.47294 3.36822 6.83878 3.51531 6.28389 3.73113C5.7099 3.95404 5.22301 4.25222 4.73793 4.73749C4.25249 5.22259 3.95432 5.70949 3.73069 6.28331C3.51433 6.8384 3.36707 7.47277 3.32525 8.40149C3.28361 9.3324 3.27271 9.63004 3.27271 12.0002C3.27271 14.3704 3.28325 14.667 3.32543 15.5979C3.36816 16.5269 3.51524 17.1611 3.73087 17.716C3.95396 18.29 4.25213 18.7769 4.73739 19.262C5.22228 19.7475 5.70918 20.0464 6.2828 20.2693C6.83805 20.4851 7.4724 20.6322 8.40128 20.6748C9.33216 20.7171 9.62942 20.7275 11.9993 20.7275C14.3696 20.7275 14.6662 20.7171 15.5971 20.6748C16.5261 20.6322 17.161 20.4851 17.7163 20.2693C18.2901 20.0464 18.7762 19.7475 19.2611 19.262C19.7466 18.7769 20.0447 18.29 20.2684 17.7162C20.4829 17.1611 20.6302 16.5268 20.6738 15.598C20.7156 14.6671 20.7265 14.3704 20.7265 12.0002C20.7265 9.63004 20.7156 9.33259 20.6738 8.40168C20.6302 7.47259 20.4829 6.8384 20.2684 6.28349C20.0447 5.70949 19.7466 5.22259 19.2611 4.73749C18.7757 4.25204 18.2903 3.95386 17.7157 3.73113C17.1594 3.51531 16.5248 3.36822 15.5958 3.32568C14.6649 3.28331 14.3686 3.27295 11.9977 3.27295H12.0004ZM11.2176 4.84568C11.4499 4.84531 11.7092 4.84568 12.0004 4.84568C14.3306 4.84568 14.6067 4.85404 15.5269 4.89586C16.3778 4.93477 16.8396 5.07695 17.1472 5.1964C17.5545 5.35459 17.8448 5.54368 18.1501 5.84913C18.4555 6.15459 18.6446 6.44549 18.8031 6.85277C18.9226 7.16004 19.065 7.62186 19.1037 8.47277C19.1455 9.39277 19.1546 9.66913 19.1546 11.9982C19.1546 14.3273 19.1455 14.6037 19.1037 15.5237C19.0648 16.3746 18.9226 16.8364 18.8031 17.1437C18.645 17.551 18.4555 17.841 18.1501 18.1462C17.8446 18.4517 17.5546 18.6408 17.1472 18.7989C16.8399 18.9189 16.3778 19.0608 15.5269 19.0997C14.6069 19.1415 14.3306 19.1506 12.0004 19.1506C9.67015 19.1506 9.39397 19.1415 8.474 19.0997C7.62312 19.0604 7.16131 18.9182 6.85351 18.7988C6.44625 18.6406 6.15534 18.4515 5.8499 18.146C5.54445 17.8406 5.35537 17.5504 5.19683 17.143C5.07738 16.8357 4.93502 16.3739 4.89629 15.5229C4.85448 14.6029 4.84611 14.3266 4.84611 11.996C4.84611 9.66549 4.85448 9.39059 4.89629 8.47059C4.9352 7.61968 5.07738 7.15786 5.19683 6.85022C5.35501 6.44295 5.54445 6.15204 5.8499 5.84659C6.15534 5.54113 6.44625 5.35204 6.85351 5.19349C7.16113 5.07349 7.62312 4.93168 8.474 4.89259C9.27907 4.85622 9.59106 4.84531 11.2176 4.84349V4.84568ZM16.6588 6.29477C16.0807 6.29477 15.6116 6.76331 15.6116 7.34168C15.6116 7.91986 16.0807 8.38895 16.6588 8.38895C17.237 8.38895 17.7061 7.91986 17.7061 7.34168C17.7061 6.76349 17.237 6.2944 16.6588 6.2944V6.29477ZM12.0004 7.5184C9.52542 7.5184 7.51876 9.52513 7.51876 12.0002C7.51876 14.4753 9.52542 16.4811 12.0004 16.4811C14.4755 16.4811 16.4814 14.4753 16.4814 12.0002C16.4814 9.52513 14.4755 7.5184 12.0004 7.5184ZM12.0004 9.09113C13.6069 9.09113 14.9094 10.3935 14.9094 12.0002C14.9094 13.6068 13.6069 14.9093 12.0004 14.9093C10.3938 14.9093 9.09144 13.6068 9.09144 12.0002C9.09144 10.3935 10.3938 9.09113 12.0004 9.09113Z" fill="white"/>
</g>
<defs>
<radialGradient id="paint0_radial_199_1865" cx="0" cy="0" r="1" gradientUnits="userSpaceOnUse" gradientTransform="translate(6.46131 25.6363) rotate(-90) scale(23.4234 21.7909)">
<stop stop-color="#FFDD55"/>
<stop offset="0.1" stop-color="#FFDD55"/>
<stop offset="0.5" stop-color="#FF543E"/>
<stop offset="1" stop-color="#C837AB"/>
</radialGradient>
<radialGradient id="paint1_radial_199_1865" cx="0" cy="0" r="1" gradientUnits="userSpaceOnUse" gradientTransform="translate(-3.77796 1.88422) rotate(78.678) scale(10.4705 43.1693)">
<stop stop-color="#3771C8"/>
<stop offset="0.128" stop-color="#3771C8"/>
<stop offset="1" stop-color="#6600FF" stop-opacity="0"/>
</radialGradient>
<clipPath id="clip0_199_1865">
<rect width="24" height="24" fill="white"/>
</clipPath>
</defs>
</svg>
