<svg width="32" height="31" viewBox="0 0 32 31" fill="none" xmlns="http://www.w3.org/2000/svg">
<path d="M26.9227 25.3685L26.9858 25.298C29.3804 22.6231 30.8364 19.0909 30.8364 15.2182C30.8364 6.86864 24.0678 0.1 15.7182 0.1C7.36865 0.1 0.6 6.86865 0.6 15.2182C0.6 23.5678 7.36864 30.3364 15.7182 30.3364C19.5909 30.3364 23.1231 28.8804 25.798 26.4858L25.8685 26.4227L25.9354 26.4896L30.1273 30.6817C30.1273 30.6817 30.1273 30.6817 30.1274 30.6817C30.4185 30.9727 30.8905 30.9728 31.1817 30.6818C31.1817 30.6817 31.1817 30.6817 31.1818 30.6817M26.9227 25.3685L31.2524 29.5566C31.5825 29.8869 31.5825 30.4222 31.2524 30.7524L31.1818 30.6817M26.9227 25.3685L26.9896 25.4354L31.1817 29.6273M26.9227 25.3685L31.1817 29.6273M31.1818 30.6817C31.4728 30.3905 31.4727 29.9185 31.1817 29.6274C31.1817 29.6273 31.1817 29.6273 31.1817 29.6273M31.1818 30.6817L31.1817 29.6273M25.4749 24.7273L25.4857 24.7207L25.4946 24.7116C27.8779 22.2578 29.3455 18.9093 29.3455 15.2182C29.3455 7.69204 23.2444 1.59091 15.7182 1.59091C8.19204 1.59091 2.09091 7.69204 2.09091 15.2182C2.09091 22.7444 8.19204 28.8455 15.7182 28.8455C19.4093 28.8455 22.7578 27.3779 25.2116 24.9946L25.2207 24.9857L25.2273 24.9749C25.2573 24.9258 25.2937 24.8793 25.3364 24.8364C25.3793 24.7937 25.4258 24.7573 25.4749 24.7273Z" fill="#56463D" stroke="#F4F4F4" stroke-width="0.2"/>
</svg>
