<svg width="23" height="24" viewBox="0 0 23 24" fill="none" xmlns="http://www.w3.org/2000/svg">
<path d="M0.95 0.885459V21.3105C0.95 22.6064 1.82329 23.6776 2.916 23.6776H20.084C21.1767 23.6776 22.05 22.6064 22.05 21.3105V0.885459C22.05 0.644993 21.8552 0.45 21.6145 0.45H1.38546C1.14477 0.45 0.95 0.644993 0.95 0.885459ZM1.82092 1.32092H21.1791V21.3105C21.1791 21.7271 21.0535 22.103 20.8531 22.3735C20.6527 22.6441 20.38 22.8066 20.084 22.8066H2.916C2.61996 22.8066 2.34733 22.6441 2.14692 22.3735C1.94653 22.103 1.82092 21.7271 1.82092 21.3105V1.32092Z" fill="#56463D" stroke="#56463D" stroke-width="0.1"/>
<path d="M11.5 10.1955C14.2612 10.1955 16.5075 7.94923 16.5075 5.18802V3.56808C16.5075 3.32761 16.3127 3.13262 16.0721 3.13262C15.8314 3.13262 15.6366 3.32761 15.6366 3.56808V5.18802C15.6366 7.46884 13.781 9.32462 11.5 9.32462C9.219 9.32462 7.3634 7.46884 7.3634 5.18802V3.56808C7.3634 3.32761 7.16863 3.13262 6.92794 3.13262C6.68725 3.13262 6.49248 3.32761 6.49248 3.56808V5.18802C6.49248 7.94923 8.73879 10.1955 11.5 10.1955Z" fill="#56463D" stroke="#56463D" stroke-width="0.1"/>
</svg>
