<svg width="40" height="11" viewBox="0 0 40 11" fill="none" xmlns="http://www.w3.org/2000/svg">
<path fill-rule="evenodd" clip-rule="evenodd" d="M40.0001 5.18461C40.0001 2.37942 37.9739 0.419922 35.1713 0.419922H31.5659V10.0054H35.1713C37.9739 10.0054 40.0001 8.032 40.0001 5.18461ZM37.7413 5.17824C37.7413 6.70046 36.6228 7.85645 35.1755 7.85645H33.7939V2.55615H35.1755C36.6228 2.55615 37.7413 3.69801 37.7413 5.17824Z" fill="#171717"/>
<path d="M30.3085 10.1277H28.6611L24.5617 4.80489V10.1277H22.4363V0.423828H24.0586L28.1831 5.88933V0.423828H30.3085V10.1277Z" fill="#171717"/>
<path d="M19.0898 10.1277H21.0578V0.423828H19.0898V10.1277Z" fill="#171717"/>
<path fill-rule="evenodd" clip-rule="evenodd" d="M12.6394 10.0054V7.22844H13.9402L15.7493 10.0054H18.2769L16.1087 6.76329C17.1121 6.18548 17.7194 5.12818 17.7194 3.78905C17.7194 1.71666 16.3193 0.419922 14.2378 0.419922H10.5457V10.0054H12.6394ZM15.6399 3.79703C15.6399 4.58641 14.9958 5.09376 14.1903 5.09376H12.6415V2.52816H14.1903C14.9958 2.52816 15.6399 3.02157 15.6399 3.79703Z" fill="#171717"/>
<path d="M9.44665 10.3407H7.77013L7.67695 9.16888C7.02524 10.0264 6.08047 10.5407 4.81651 10.5407C1.98236 10.5407 0 8.36868 0 5.58232C0 2.55284 2.07554 0.423828 4.843 0.423828C7.05173 0.423828 8.96759 1.76697 9.35347 4.08201H6.99838C6.59935 2.95314 5.69459 2.63859 4.88301 2.63859C3.33951 2.63859 2.27506 3.81043 2.27506 5.52502C2.27506 7.05399 3.29949 8.29726 4.90969 8.29726C5.9608 8.29726 6.75904 7.73998 7.19808 6.81126L4.60347 6.78262V4.882H9.44665V10.3407Z" fill="#171717"/>
</svg>
